<svg width="186" height="51" viewBox="0 0 186 51" fill="none" xmlns="http://www.w3.org/2000/svg">
<path d="M17.4834 0.302785C18.0728 -0.112906 18.8634 -0.0993773 19.4385 0.335988L35.1621 12.2403C35.5758 12.5535 35.8193 13.0427 35.8193 13.5616V21.2471C35.8193 21.6744 35.6541 22.0851 35.3584 22.3936L29.4844 28.5186C28.4511 29.5959 26.6321 28.8647 26.6318 27.3721V18.0655C26.6318 17.5466 26.3883 17.0574 25.9746 16.7442L19.2471 11.6504C18.672 11.2151 17.8814 11.2015 17.292 11.6172L9.8877 16.8428C9.44799 17.1532 9.1866 17.6581 9.18652 18.1963V26.2774C9.18661 26.6873 9.33874 27.0824 9.61328 27.3868L20.0625 38.9649C20.3302 39.2617 20.4811 39.6454 20.4883 40.045L20.583 45.2872V49.3399C20.583 50.8667 18.6934 51.5808 17.6836 50.4356L0.414062 30.8497C0.14724 30.547 2.94102e-05 30.1574 0 29.754V13.5001C8.16194e-05 12.9618 0.261466 12.457 0.701172 12.1465L17.4834 0.302785ZM84.627 20.2022C85.1297 20.2023 85.5686 20.5428 85.6953 21.0293L88.0078 29.9043C88.0186 29.9453 88.0553 29.9737 88.0977 29.9737C88.1399 29.9736 88.1767 29.9452 88.1875 29.9043L90.5332 21.0254C90.6612 20.5408 91.0994 20.2024 91.6006 20.2022H93.8291C94.5886 20.2022 95.1217 20.9515 94.873 21.669L90.1748 35.2071C89.923 35.956 89.5661 36.616 89.1045 37.1866C88.6489 37.763 88.0583 38.2142 87.333 38.5411C86.6136 38.868 85.7261 39.0323 84.6709 39.0323C84.1436 39.0323 83.6461 38.9904 83.1787 38.9073C83.1046 38.895 83.0318 38.8818 82.9609 38.8682C82.3929 38.7592 82.1048 38.1673 82.2744 37.6143L82.6133 36.5088C82.795 35.9168 83.4271 35.6186 84.0439 35.6739C84.0673 35.676 84.0903 35.6782 84.1133 35.6797C84.4668 35.7035 84.7698 35.6473 85.0215 35.5108C85.2793 35.38 85.4773 35.1445 85.6152 34.8057L85.624 34.7842C85.7282 34.5341 85.737 34.2542 85.6484 33.9981L81.3828 21.668C81.1351 20.9508 81.6679 20.2025 82.4268 20.2022H84.627ZM71.6768 20.0245C73.1276 20.0245 74.372 20.3217 75.4092 20.9161C76.4523 21.5045 77.253 22.3307 77.8105 23.3946C78.374 24.4525 78.6553 25.6862 78.6553 27.0948C78.6552 28.4971 78.3739 29.7303 77.8105 30.794C77.253 31.8519 76.4522 32.6782 75.4092 33.2725C74.372 33.8609 73.1276 34.1553 71.6768 34.1553C70.226 34.1553 68.9786 33.8609 67.9355 33.2725C66.8986 32.6782 66.0986 31.8518 65.5352 30.794C64.9777 29.7302 64.6983 28.4973 64.6982 27.0948C64.6982 25.6862 64.9776 24.4525 65.5352 23.3946C66.0986 22.3308 66.8986 21.5044 67.9355 20.9161C68.9786 20.3217 70.226 20.0245 71.6768 20.0245ZM49.6016 15.6377C49.9944 15.6378 50.3577 15.8464 50.5557 16.1856L53.5635 21.3438C53.586 21.3823 53.6273 21.4063 53.6719 21.4063C53.7162 21.4062 53.7568 21.382 53.7793 21.3438L56.8223 16.1817C57.0208 15.8448 57.3824 15.6379 57.7734 15.6377H60.1592C61.0207 15.6379 61.5503 16.5805 61.1025 17.3165L56.9219 24.1836C56.7043 24.5412 56.7079 24.9914 56.9307 25.3458L61.2412 32.2042C61.7033 32.9397 61.1744 33.8965 60.3057 33.8965H57.8262C57.4359 33.8965 57.0748 33.6903 56.876 33.3545L53.7803 28.128C53.7575 28.0896 53.7155 28.0655 53.6709 28.0655C53.6265 28.0656 53.5851 28.0897 53.5625 28.128L50.4668 33.3545C50.2679 33.6903 49.9068 33.8965 49.5166 33.8965H47.0684C46.2006 33.8965 45.6717 32.9418 46.1318 32.2061L50.4229 25.3458C50.6446 24.9913 50.6473 24.5416 50.4297 24.1846L46.2422 17.3174C45.7934 16.5814 46.3235 15.6377 47.1855 15.6377H49.6016ZM101.646 20.2022C101.721 20.2022 101.793 20.2097 101.863 20.2237C101.93 20.2112 101.999 20.2022 102.07 20.2022H102.919C103.385 20.2022 103.8 20.4947 103.958 20.9327L105.931 26.4112C106.279 27.3786 107.645 27.387 108.005 26.4239L110.063 20.92C110.225 20.4887 110.637 20.2024 111.098 20.2022H111.951C112.049 20.2022 112.143 20.2144 112.231 20.2374C112.319 20.2148 112.412 20.2022 112.507 20.2022H114.407C115.017 20.2022 115.512 20.6976 115.512 21.3077V32.792C115.512 33.4021 115.017 33.8965 114.407 33.8965H112.507C111.897 33.8965 111.402 33.4021 111.402 32.792V25.8731L108.633 33.1836C108.47 33.6128 108.059 33.8965 107.6 33.8965H106.309C105.846 33.8965 105.433 33.6086 105.272 33.1749L102.751 26.3428V32.792C102.751 33.4021 102.256 33.8965 101.646 33.8965H99.6914C99.0816 33.8963 98.5869 33.4019 98.5869 32.792V21.3077C98.5869 20.6978 99.0816 20.2025 99.6914 20.2022H101.646ZM128.474 15.6377C129.852 15.6377 131.006 15.8315 131.936 16.2178C132.871 16.6041 133.572 17.1446 134.04 17.8399C134.514 18.5352 134.751 19.3407 134.751 20.2559C134.751 20.9513 134.603 21.5724 134.31 22.1192C134.016 22.66 133.611 23.1093 133.096 23.4659C132.601 23.8082 132.031 24.0522 131.387 24.1973C131.34 24.2078 131.307 24.2491 131.307 24.2969C131.307 24.3506 131.349 24.3948 131.402 24.3985C132.109 24.4461 132.763 24.6435 133.365 24.9903C134.001 25.3528 134.511 25.8581 134.895 26.5059C135.278 27.1478 135.47 27.9086 135.47 28.7881C135.47 29.7687 135.218 30.6454 134.715 31.418C134.211 32.1847 133.482 32.7906 132.529 33.2364C131.576 33.6762 130.419 33.8965 129.059 33.8965H121.898C121.288 33.8965 120.794 33.4021 120.794 32.792V16.7422C120.794 16.1323 121.288 15.6377 121.898 15.6377H128.474ZM142.189 20.2022C142.799 20.2024 143.294 20.6977 143.294 21.3077V23.9424C143.294 25.0853 144.818 25.4758 145.367 24.4737L147.395 20.7764C147.588 20.4228 147.96 20.2022 148.363 20.2022H150.831C151.441 20.2022 151.936 20.6976 151.936 21.3077V32.792C151.936 33.4021 151.441 33.8965 150.831 33.8965H148.877C148.267 33.8965 147.772 33.4021 147.772 32.792V30.1504C147.772 29.0064 146.246 28.6173 145.698 29.6211L143.68 33.3213C143.486 33.6761 143.114 33.8965 142.71 33.8965H140.234C139.624 33.8964 139.13 33.402 139.13 32.792V21.3077C139.13 20.6977 139.624 20.2023 140.234 20.2022H142.189ZM167.92 20.2022C168.53 20.2024 169.024 20.6978 169.024 21.3077V32.792C169.024 33.4019 168.53 33.8963 167.92 33.8965H165.965C165.355 33.8965 164.86 33.402 164.86 32.792V24.6417C164.86 24.0316 164.366 23.5372 163.756 23.5372H163.047C162.46 23.5372 161.975 23.9954 161.943 24.5811L161.785 27.4776C161.731 28.6366 161.578 29.6261 161.326 30.4463C161.08 31.2606 160.745 31.9206 160.319 32.4258C159.9 32.931 159.402 33.3023 158.826 33.5401C158.251 33.7778 157.6 33.8965 156.875 33.8965H156.676C156.069 33.8965 155.576 33.4074 155.571 32.8008L155.557 30.9766C155.555 30.7339 155.751 30.5354 155.993 30.5352C156.293 30.5352 156.554 30.4581 156.775 30.3038C156.997 30.1492 157.183 29.9023 157.333 29.5635C157.483 29.2188 157.603 28.7762 157.693 28.2354C157.783 27.6945 157.84 27.0373 157.864 26.2647L158.05 21.2667C158.072 20.6729 158.559 20.2022 159.153 20.2022H167.92ZM184.896 20.2022C185.505 20.2023 186 20.6977 186 21.3077V32.792C186 33.402 185.505 33.8964 184.896 33.8965H182.94C182.331 33.8963 181.836 33.402 181.836 32.792V24.6417C181.836 24.0316 181.341 23.5372 180.731 23.5372H180.022C179.436 23.5372 178.951 23.9954 178.919 24.5811L178.761 27.4776C178.707 28.6366 178.554 29.6261 178.302 30.4463C178.056 31.2606 177.721 31.9206 177.295 32.4258C176.875 32.931 176.377 33.3024 175.802 33.5401C175.226 33.7778 174.576 33.8965 173.851 33.8965H173.651C173.045 33.8965 172.552 33.4074 172.547 32.8008L172.532 30.9766C172.53 30.7338 172.727 30.5352 172.97 30.5352C173.269 30.5351 173.53 30.4582 173.752 30.3038C173.974 30.1492 174.16 29.9022 174.31 29.5635C174.459 29.2188 174.579 28.7761 174.669 28.2354C174.759 27.6945 174.816 27.0374 174.84 26.2647L175.025 21.2667C175.047 20.673 175.535 20.2023 176.129 20.2022H184.896ZM71.7041 23.252C71.1586 23.252 70.697 23.4126 70.3193 23.7334C69.9477 24.0543 69.6627 24.4999 69.4648 25.0704C69.273 25.6409 69.1768 26.3068 69.1768 27.0674C69.1768 27.8163 69.273 28.4763 69.4648 29.0469C69.6627 29.6175 69.9477 30.0629 70.3193 30.3838C70.697 30.7048 71.1585 30.8653 71.7041 30.8653C72.2316 30.8653 72.6783 30.7048 73.0439 30.3838C73.4095 30.0629 73.6881 29.6174 73.8799 29.0469C74.0777 28.4763 74.1768 27.8163 74.1768 27.0674C74.1767 26.3068 74.0777 25.6409 73.8799 25.0704C73.688 24.5 73.4095 24.0543 73.0439 23.7334C72.6783 23.4125 72.2316 23.252 71.7041 23.252ZM126.35 25.9883C125.74 25.9884 125.245 26.483 125.245 27.0928V29.2344C125.245 29.8444 125.74 30.3388 126.35 30.3389H127.997C128.962 30.3389 129.672 30.1583 130.128 29.7959C130.589 29.4335 130.82 28.928 130.82 28.2803C130.82 27.8108 130.71 27.4062 130.488 27.0674C130.266 26.7227 129.952 26.4577 129.544 26.2735C129.136 26.0833 128.648 25.9884 128.078 25.9883H126.35ZM126.35 19.1417C125.74 19.1418 125.245 19.6362 125.245 20.2461V22.0401C125.245 22.6501 125.74 23.1445 126.35 23.1446H127.709C128.194 23.1446 128.626 23.0647 129.004 22.9043C129.382 22.7439 129.676 22.5112 129.886 22.2081C130.101 21.9051 130.209 21.5399 130.209 21.1124C130.209 20.5002 129.99 20.0187 129.553 19.668C129.115 19.3174 128.525 19.1417 127.781 19.1417H126.35ZM30.2393 4.64458C30.3734 4.64465 30.4877 4.74098 30.5107 4.8731L30.7812 6.43071C30.8238 6.67754 30.5425 6.84857 30.3428 6.69732L28.2881 5.14068C28.0775 4.98075 28.1905 4.64463 28.4551 4.64458H30.2393Z" fill="#406665"/>
</svg>
