<svg width="186" height="52" viewBox="0 0 186 52" fill="none" xmlns="http://www.w3.org/2000/svg">
<path d="M84.6279 20.7482C85.13 20.7482 85.5687 21.0878 85.6942 21.5739L88.0081 30.5346C88.0188 30.5754 88.0555 30.6041 88.0977 30.6042C88.14 30.6042 88.1773 30.5755 88.188 30.5346L90.5357 21.5698C90.6626 21.0856 91.1001 20.7482 91.6006 20.7482H93.8387C94.5947 20.7482 95.1262 21.4925 94.8802 22.2074L90.1752 35.8827C89.9234 36.6381 89.5664 37.304 89.1048 37.8795C88.6492 38.4609 88.0586 38.9167 87.3333 39.2464C86.6139 39.576 85.7264 39.7406 84.6713 39.7406C84.1439 39.7406 83.6465 39.699 83.179 39.6151C83.1017 39.6022 83.026 39.5881 82.9523 39.5738C82.3885 39.4639 82.1027 38.8764 82.2699 38.3269L82.6159 37.1889C82.7963 36.5965 83.4287 36.2988 84.0455 36.3541C84.0683 36.3562 84.0912 36.3581 84.1137 36.3597C84.4673 36.3836 84.7704 36.3265 85.0222 36.1887C85.28 36.0568 85.4777 35.8198 85.6156 35.4781L85.628 35.4484C85.7302 35.2009 85.7384 34.9243 85.6515 34.6709L81.3766 22.206C81.1316 21.4914 81.6627 20.7483 82.4181 20.7482H84.6279ZM71.677 20.5683C73.1279 20.5683 74.3723 20.8683 75.4095 21.4678C76.4525 22.0613 77.2527 22.8947 77.8102 23.9678C78.3737 25.0349 78.656 26.2788 78.656 27.6996C78.656 29.1143 78.3737 30.3582 77.8102 31.4313C77.2527 32.4984 76.4525 33.3318 75.4095 33.9313C74.3723 34.5248 73.1279 34.8219 71.677 34.8219C70.2263 34.8218 68.9794 34.5248 67.9363 33.9313C66.8992 33.3318 66.0984 32.4984 65.5349 31.4313C64.9774 30.3583 64.6988 29.1143 64.6988 27.6996C64.6988 26.2788 64.9774 25.0349 65.5349 23.9678C66.0984 22.8947 66.8992 22.0613 67.9363 21.4678C68.9794 20.8683 70.2263 20.5683 71.677 20.5683ZM49.6015 16.1438C49.9946 16.1439 50.3581 16.3535 50.5548 16.6938L53.5635 21.8993C53.5858 21.9378 53.6272 21.9619 53.6717 21.962C53.7161 21.962 53.7575 21.9383 53.7799 21.9L56.8245 16.689C57.0219 16.3513 57.3837 16.1438 57.775 16.1438H60.1744C61.0314 16.1438 61.5602 17.0801 61.1173 17.8139L56.9161 24.7743C56.7022 25.1289 56.7054 25.5738 56.9244 25.9254L61.2558 32.8774C61.7127 33.6107 61.1858 34.5605 60.3219 34.5606H57.8274C57.4369 34.5606 57.0752 34.3542 56.8775 34.0175L53.7799 28.7417C53.7573 28.7033 53.7162 28.6797 53.6717 28.6797C53.6272 28.6797 53.586 28.7033 53.5635 28.7417L50.4659 34.0175C50.2681 34.3542 49.9065 34.5606 49.516 34.5606H47.0532C46.1902 34.5606 45.6624 33.613 46.1172 32.8795L50.43 25.9254C50.648 25.5738 50.6502 25.1297 50.4362 24.7756L46.2282 17.8146C45.7847 17.0809 46.3131 16.144 47.1704 16.1438H49.6015ZM101.65 20.7482C101.721 20.7482 101.791 20.7547 101.858 20.7675C101.923 20.7555 101.991 20.7482 102.06 20.7482H102.919C103.385 20.7482 103.799 21.0406 103.956 21.4788L105.933 27.0172C106.279 27.9852 107.645 27.9934 108.003 27.0296L110.066 21.4664C110.226 21.0347 110.638 20.7482 111.098 20.7482H111.962C112.057 20.7482 112.148 20.7601 112.234 20.782C112.32 20.7603 112.41 20.7482 112.503 20.7482H114.411C115.019 20.7482 115.512 21.2409 115.512 21.849V33.4599C115.512 34.0679 115.019 34.5606 114.411 34.5606H112.503C111.895 34.5605 111.402 34.0679 111.402 33.4599V26.4692L108.631 33.8472C108.469 34.2765 108.059 34.5606 107.6 34.5606H106.308C105.846 34.5606 105.433 34.2722 105.275 33.8383L102.751 26.942V33.4599C102.751 34.0678 102.258 34.5605 101.65 34.5606H99.6886C99.0806 34.5606 98.5872 34.0679 98.5872 33.4599V21.849C98.5872 21.2409 99.0806 20.7482 99.6886 20.7482H101.65ZM128.474 16.1438C129.852 16.1438 131.007 16.3387 131.936 16.7283C132.871 17.1179 133.573 17.6633 134.04 18.3647C134.514 19.0661 134.751 19.8787 134.751 20.8019C134.751 21.5034 134.604 22.1301 134.31 22.6816C134.017 23.2271 133.611 23.6798 133.096 24.0395C132.601 24.3847 132.031 24.6306 131.387 24.777C131.34 24.7878 131.307 24.8295 131.307 24.8776C131.307 24.932 131.35 24.9767 131.404 24.9804C132.11 25.0285 132.764 25.2275 133.366 25.5773C134.002 25.943 134.511 26.4527 134.895 27.1061C135.279 27.7535 135.47 28.5211 135.47 29.4083C135.47 30.3973 135.218 31.2814 134.715 32.0606C134.211 32.8339 133.483 33.4459 132.53 33.8955C131.577 34.3391 130.42 34.5606 129.059 34.5606H121.895C121.287 34.5606 120.794 34.0679 120.794 33.4599V17.2446C120.794 16.6366 121.287 16.1438 121.895 16.1438H128.474ZM142.193 20.7482C142.801 20.7482 143.294 21.2409 143.294 21.849V24.5385C143.294 25.68 144.817 26.0672 145.362 25.0644L147.396 21.323C147.589 20.9686 147.961 20.7482 148.364 20.7482H150.835C151.443 20.7483 151.936 21.2409 151.936 21.849V33.4599C151.936 34.0679 151.443 34.5605 150.835 34.5606H148.873C148.265 34.5606 147.772 34.0679 147.772 33.4599V30.7634C147.772 29.6209 146.247 29.2347 145.703 30.2395L143.678 33.9837C143.486 34.3393 143.114 34.5606 142.709 34.5606H140.231C139.623 34.5606 139.131 34.0679 139.131 33.4599V21.849C139.131 21.2409 139.623 20.7482 140.231 20.7482H142.193ZM167.923 20.7482C168.531 20.7482 169.024 21.2409 169.024 21.849V33.4599C169.024 34.0679 168.531 34.5606 167.923 34.5606H165.961C165.353 34.5606 164.861 34.0679 164.861 33.4599V25.2119C164.86 24.604 164.367 24.1112 163.759 24.1112H163.044C162.459 24.1112 161.976 24.5686 161.944 25.1527L161.785 28.0862C161.731 29.2552 161.578 30.2532 161.326 31.0805C161.08 31.9018 160.745 32.5677 160.319 33.0773C159.899 33.5868 159.401 33.9611 158.826 34.2008C158.25 34.4406 157.6 34.5606 156.875 34.5606H156.672C156.067 34.5605 155.576 34.0733 155.571 33.4688L155.557 31.6112C155.555 31.3684 155.751 31.1708 155.994 31.1708C156.293 31.1707 156.554 31.0929 156.776 30.9371C156.998 30.7812 157.184 30.5323 157.334 30.1906C157.484 29.8429 157.604 29.3961 157.693 28.8507C157.783 28.3051 157.84 27.6421 157.864 26.8628L158.05 21.8083C158.072 21.2165 158.558 20.7483 159.15 20.7482H167.923ZM184.899 20.7482C185.507 20.7482 186 21.2409 186 21.849V33.4599C186 34.0679 185.507 34.5606 184.899 34.5606H182.938C182.33 34.5606 181.836 34.0679 181.836 33.4599V25.2119C181.836 24.604 181.343 24.1112 180.735 24.1112H180.019C179.434 24.1113 178.952 24.5687 178.92 25.1527L178.761 28.0862C178.707 29.2551 178.554 30.2532 178.302 31.0805C178.056 31.9018 177.721 32.5677 177.295 33.0773C176.876 33.5868 176.378 33.961 175.802 34.2008C175.227 34.4406 174.576 34.5606 173.851 34.5606H173.648C173.044 34.5606 172.552 34.0734 172.547 33.4688L172.532 31.6112C172.53 31.3685 172.727 31.1709 172.969 31.1708C173.269 31.1708 173.53 31.0928 173.752 30.9371C173.973 30.7813 174.159 30.5322 174.309 30.1906C174.459 29.8429 174.579 29.3961 174.669 28.8507C174.759 28.3051 174.816 27.6421 174.84 26.8628L175.026 21.8083C175.048 21.2165 175.534 20.7482 176.126 20.7482H184.899ZM71.7039 23.8237C71.1585 23.8238 70.6968 23.9853 70.3192 24.309C69.9475 24.6327 69.663 25.0825 69.4651 25.6579C69.2733 26.2335 69.177 26.9053 69.177 27.6727C69.177 28.428 69.2733 29.0933 69.4651 29.6688C69.6629 30.2443 69.9476 30.694 70.3192 31.0177C70.6968 31.3414 71.1585 31.5036 71.7039 31.5037C72.2315 31.5037 72.6782 31.3415 73.0439 31.0177C73.4096 30.694 73.6888 30.2444 73.8807 29.6688C74.0784 29.0934 74.177 28.4279 74.177 27.6727C74.177 26.9053 74.0785 26.2335 73.8807 25.6579C73.6888 25.0825 73.4095 24.6327 73.0439 24.309C72.6782 23.9854 72.2313 23.8237 71.7039 23.8237ZM126.346 26.5843C125.739 26.5843 125.246 27.0771 125.246 27.6851V29.8715C125.246 30.4795 125.738 30.9729 126.346 30.9729H127.997C128.962 30.9729 129.673 30.79 130.129 30.4243C130.59 30.0586 130.821 29.5489 130.821 28.8955C130.821 28.4219 130.71 28.0144 130.488 27.6727C130.267 27.325 129.952 27.0576 129.544 26.8717C129.136 26.6799 128.647 26.5843 128.078 26.5843H126.346ZM126.346 19.6777C125.738 19.6778 125.246 20.1711 125.246 20.7792V22.6147C125.246 23.2227 125.738 23.7155 126.346 23.7155H127.71C128.195 23.7155 128.627 23.6347 129.004 23.4729C129.382 23.311 129.676 23.077 129.886 22.7712C130.102 22.4655 130.209 22.0965 130.209 21.6649C130.209 21.0476 129.991 20.5621 129.553 20.2085C129.115 19.8548 128.525 19.6777 127.782 19.6777H126.346Z" fill="#BCB5A4"/>
<path d="M18.9228 51.8175C18.457 51.8175 18.0053 51.6199 17.6876 51.2528L0.409132 31.4828C0.147978 31.1863 -0.000244141 30.7981 -0.000244141 30.3958V13.9714C-0.000244141 13.4349 0.26091 12.9338 0.691461 12.6303L17.483 0.680742C17.9982 0.313715 18.6617 0.271366 19.2193 0.567811L19.4451 0.708975L35.1779 12.7221C35.5873 13.0326 35.8272 13.5267 35.8272 14.0349V21.813C35.8272 22.2365 35.6649 22.6388 35.3755 22.9494L29.489 29.1395C28.8043 29.8594 27.5974 29.8523 26.8916 28.9207C26.7222 28.6948 26.6375 28.4125 26.6375 28.1301V18.4463C26.6092 17.9945 26.3692 17.5499 25.9881 17.2605L19.2546 12.115C18.6758 11.6774 17.8853 11.6633 17.2924 12.0868L9.75421 17.4511C9.4013 17.7052 9.18955 18.1075 9.18955 18.5451V27.0008C9.18955 27.3326 9.30954 27.6502 9.52835 27.8972L20.0663 39.6774C20.3274 39.9738 20.4756 40.355 20.4898 40.7502L20.5815 46.0509V50.307C20.5815 50.6105 20.4827 50.9211 20.2851 51.154C19.8969 51.6058 19.4028 51.8175 18.9228 51.8175ZM2.44896 30.6005L18.097 48.5001C18.2241 48.6484 18.4711 48.5566 18.4711 48.359V46.0721L18.3864 41.4913C18.3864 41.1525 18.2523 40.8279 18.0264 40.5738L8.032 29.4006C7.41088 28.7089 7.07209 27.8196 7.07209 26.8879V17.4581C7.07209 17.0276 7.28383 16.6182 7.63674 16.3641L16.0643 10.3646C17.4194 9.39764 19.2122 9.43293 20.5392 10.4352L27.2727 15.5806C28.1479 16.2512 28.6843 17.2605 28.7479 18.3545V18.5451V26.3091C28.7479 26.4997 28.9808 26.5914 29.1149 26.4573L33.3357 22.0177C33.5757 21.7707 33.7027 21.439 33.7027 21.0931V14.9313C33.7027 14.5148 33.5051 14.1196 33.1734 13.8655L19.2122 3.20052C18.7464 2.84056 18.097 2.8335 17.6171 3.17229L2.68188 13.8161C2.32897 14.0702 2.11722 14.4725 2.11722 14.9101V29.7182C2.11722 30.0429 2.23721 30.3535 2.44896 30.6005Z" fill="#BCB5A4"/>
<path d="M2.45313 30.5931L18.1012 48.4927C18.2282 48.6409 18.4753 48.5492 18.4753 48.3515V46.0647L18.3906 41.4839C18.3906 41.1451 18.2565 40.8204 18.0306 40.5663L8.03618 29.3932C7.41506 28.7015 7.07627 27.8121 7.07627 26.8805V17.4507C7.07627 17.0201 7.28801 16.6108 7.64092 16.3567L16.0684 10.3572C17.4236 9.3902 19.2164 9.42549 20.5433 10.4278L27.2769 15.5732C28.1521 16.2437 28.6885 17.2531 28.752 18.3471V18.5376V26.3017C28.752 26.4923 28.985 26.584 29.1191 26.4499L33.3399 22.0103C33.5799 21.7633 33.7069 21.4315 33.7069 21.0857V14.9238C33.7069 14.5074 33.5093 14.1121 33.1775 13.8581L19.2164 3.20015C18.7506 2.84018 18.1012 2.83312 17.6212 3.17192L2.68606 13.8086C2.33315 14.0627 2.1214 14.4651 2.1214 14.9027V29.7108C2.1214 30.0355 2.24139 30.346 2.45313 30.5931Z" fill="#D9D2C2"/>
<path d="M30.5103 5.28308C30.4875 5.15122 30.3732 5.05507 30.2394 5.05493H28.4466C28.1834 5.05498 28.07 5.38927 28.2791 5.54914L30.3435 7.1269C30.5422 7.27844 30.8239 7.10788 30.7818 6.86153L30.5103 5.28308Z" fill="#BCB5A4"/>
<path d="M30.5106 5.28284C30.4878 5.15098 30.3735 5.05482 30.2397 5.05469H28.4469C28.1837 5.05473 28.0704 5.38902 28.2794 5.5489L30.3438 7.12666C30.5425 7.27819 30.8243 7.10763 30.7822 6.86129L30.5106 5.28284Z" fill="#BCB5A4"/>
</svg>
