<svg width="32" height="38" viewBox="0 0 32 38" fill="none" xmlns="http://www.w3.org/2000/svg">
<path d="M15.8652 2.50002C22.4937 2.5001 28.7371 8.48823 28.7373 14.9317C28.7373 16.8224 28.0002 19.0091 26.6709 21.3565C25.3564 23.6777 23.5684 25.9709 21.7217 28.0254C19.5098 30.4861 17.2884 32.5189 15.8652 33.7539C15.6396 33.5581 15.3923 33.3439 15.1299 33.1094C13.7349 31.8629 11.8823 30.1062 10.0381 28.0576C8.18638 26.0008 6.39086 23.7024 5.07031 21.375C3.73474 19.0211 2.99414 16.8276 2.99414 14.9317L2.99902 14.6299C3.1869 8.4028 9.14721 2.68367 15.5557 2.50392L15.8652 2.50002Z" stroke="#18C91A" stroke-width="5"/>
</svg>
