<svg width="48" height="21" viewBox="0 0 48 21" fill="none" xmlns="http://www.w3.org/2000/svg">
<path d="M1.16607 8.16318C1.28062 7.95072 1.52752 7.85426 1.75006 7.921L1.84381 7.96006L23.7911 19.7784L45.7383 7.96006C45.9813 7.82921 46.285 7.92036 46.416 8.16318C46.5469 8.40628 46.456 8.70996 46.2129 8.84091L24.0284 20.7862H23.5538L1.3692 8.84091L1.28521 8.78427C1.10697 8.63516 1.05159 8.3758 1.16607 8.16318ZM45.2647 1.10755C45.994 0.714983 46.9032 0.987677 47.2959 1.71692C47.6886 2.44624 47.4158 3.35534 46.6866 3.74816L24.502 15.6944H23.0801L0.895565 3.74816C0.166167 3.3554 -0.106564 2.44632 0.28619 1.71692C0.679022 0.987703 1.58812 0.714836 2.31744 1.10755L23.7911 12.67L45.2647 1.10755Z" fill="white"/>
</svg>
