<svg width="315" height="87" viewBox="0 0 315 87" fill="none" xmlns="http://www.w3.org/2000/svg">
<path d="M29.9716 0.51612C30.9658 -0.191533 32.3047 -0.169742 33.2748 0.570728L59.7882 20.8183C60.4779 21.345 60.8827 22.1628 60.8827 23.0305V36.1432C60.8826 36.857 60.6078 37.544 60.1159 38.0614L50.1995 48.4925C48.4671 50.3147 45.3975 49.0885 45.3975 46.5743V30.6894C45.3975 29.8217 44.9927 29.0039 44.3031 28.4773L32.9518 19.8087C31.9817 19.0682 30.6429 19.0464 29.6486 19.7541L17.161 28.6423C16.4274 29.1644 15.9912 30.0097 15.991 30.9102V44.6944C15.9912 45.379 16.2434 46.0396 16.6998 46.5499L34.3332 66.2584C34.7784 66.7561 35.03 67.3974 35.0419 68.0651L35.2011 76.9962V83.9278C35.2011 86.499 32.0135 87.6959 30.3213 85.7601L1.19368 52.437C0.750322 51.9297 0.505859 51.2785 0.505859 50.6047V22.9259C0.506021 22.0255 0.942273 21.1802 1.67585 20.658L29.9716 0.51612ZM170.706 73.5688C171.144 73.5688 171.527 73.6844 171.855 73.915C172.185 74.1435 172.442 74.465 172.624 74.8782C172.808 75.289 172.9 75.7684 172.9 76.3154C172.9 76.8644 172.808 77.3454 172.624 77.7584C172.442 78.1716 172.185 78.4942 171.855 78.7251C171.527 78.9557 171.146 79.0713 170.713 79.0713C170.392 79.0713 170.122 79.0136 169.905 78.8982C169.691 78.7828 169.516 78.6402 169.382 78.4718C169.251 78.3011 169.149 78.1348 169.078 77.9733H169.022V80.9547H168.406V73.642H169.006V74.6563H169.078C169.152 74.4971 169.253 74.3344 169.382 74.1683C169.512 73.9998 169.682 73.8573 169.895 73.7419C170.109 73.6265 170.38 73.5688 170.706 73.5688ZM250.648 73.5688C251.086 73.5688 251.47 73.6844 251.797 73.915C252.127 74.1435 252.384 74.465 252.566 74.8782C252.751 75.289 252.843 75.7684 252.843 76.3154C252.843 76.8644 252.751 77.3454 252.566 77.7584C252.384 78.1716 252.127 78.4942 251.797 78.7251C251.47 78.9557 251.089 79.0713 250.655 79.0713C250.334 79.0713 250.065 79.0136 249.848 78.8982C249.633 78.7828 249.459 78.6402 249.325 78.4718C249.193 78.3011 249.092 78.1348 249.02 77.9733H248.965V80.9547H248.349V73.642H248.948V74.6563H249.02C249.094 74.4971 249.196 74.3344 249.325 74.1683C249.454 73.9998 249.625 73.8573 249.837 73.7419C250.052 73.6265 250.323 73.5688 250.648 73.5688ZM105.808 73.5688C106.011 73.5688 106.223 73.5958 106.442 73.6489C106.664 73.702 106.869 73.7941 107.058 73.9255C107.247 74.0546 107.401 74.2362 107.518 74.4692C107.636 74.7 107.695 74.9933 107.695 75.3487V78.9598H107.079V78.1186H107.041C106.967 78.2755 106.857 78.4286 106.712 78.5763C106.567 78.724 106.384 78.8454 106.165 78.94C105.946 79.0345 105.688 79.0817 105.393 79.0817C105.073 79.0817 104.779 79.0192 104.514 78.8947C104.248 78.7677 104.036 78.5852 103.879 78.3475C103.722 78.1074 103.645 77.8165 103.645 77.4749C103.645 77.2118 103.694 76.9904 103.793 76.8103C103.893 76.6303 104.033 76.4819 104.215 76.3665C104.398 76.2511 104.614 76.1604 104.863 76.0935C105.113 76.0266 105.387 75.9747 105.687 75.9378C105.985 75.9009 106.237 75.8679 106.442 75.8402C106.65 75.8125 106.808 75.7689 106.916 75.7089C107.025 75.6489 107.079 75.5521 107.079 75.4184V75.293C107.079 74.9308 106.971 74.6455 106.754 74.4378C106.539 74.2278 106.229 74.123 105.825 74.123C105.442 74.123 105.13 74.2079 104.888 74.3763C104.648 74.5447 104.478 74.7427 104.381 74.9711L103.797 74.7608C103.917 74.4701 104.083 74.238 104.295 74.0649C104.508 73.8894 104.746 73.7635 105.009 73.6873C105.272 73.6088 105.538 73.5688 105.808 73.5688ZM176.739 73.5688C176.942 73.5688 177.153 73.5959 177.372 73.6489C177.594 73.702 177.8 73.7939 177.989 73.9255C178.178 74.0547 178.332 74.2362 178.449 74.4692C178.567 74.7 178.626 74.9933 178.626 75.3487V78.9598H178.009V78.1186H177.972C177.898 78.2755 177.787 78.4286 177.642 78.5763C177.497 78.7238 177.315 78.8455 177.096 78.94C176.877 79.0347 176.619 79.0817 176.323 79.0817C176.002 79.0817 175.709 79.0193 175.444 78.8947C175.178 78.7678 174.967 78.5851 174.81 78.3475C174.654 78.1074 174.575 77.8165 174.575 77.4749C174.575 77.2119 174.624 76.9903 174.723 76.8103C174.823 76.6303 174.964 76.4819 175.146 76.3665C175.329 76.2512 175.544 76.1604 175.793 76.0935C176.043 76.0266 176.317 75.9747 176.617 75.9378C176.915 75.9008 177.167 75.8679 177.372 75.8402C177.58 75.8125 177.738 75.7688 177.846 75.7089C177.955 75.6489 178.009 75.5522 178.009 75.4184V75.293C178.009 74.9308 177.901 74.6455 177.684 74.4378C177.469 74.2281 177.16 74.1231 176.757 74.123C176.373 74.123 176.06 74.2077 175.818 74.3763C175.578 74.5447 175.409 74.7428 175.312 74.9711L174.727 74.7608C174.847 74.4702 175.013 74.238 175.225 74.0649C175.438 73.8895 175.676 73.7635 175.939 73.6873C176.202 73.6088 176.469 73.5688 176.739 73.5688ZM87.3462 73.5688C87.8054 73.5688 88.2107 73.6855 88.5615 73.9185C88.9124 74.1516 89.1879 74.4754 89.3864 74.8886C89.5871 75.3017 89.6874 75.7812 89.6874 76.3258C89.6873 76.8655 89.5882 77.342 89.3899 77.7549C89.1914 78.1658 88.9147 78.4884 88.5615 78.7216C88.2107 78.9546 87.8055 79.0713 87.3462 79.0713C86.887 79.0713 86.4805 78.9547 86.1274 78.7216C85.7766 78.4884 85.5022 78.1658 85.3037 77.7549C85.1053 77.3419 85.0063 76.8656 85.0062 76.3258C85.0062 75.7811 85.1052 75.3018 85.3037 74.8886C85.5022 74.4731 85.7766 74.1493 86.1274 73.9185C86.4805 73.6854 86.887 73.5688 87.3462 73.5688ZM99.9616 73.5688C100.317 73.5688 100.64 73.6382 100.928 73.7767C101.217 73.9129 101.455 74.1061 101.642 74.3553C101.831 74.6023 101.95 74.891 101.998 75.2209H101.374C101.31 74.9208 101.154 74.6641 100.907 74.4518C100.663 74.2372 100.351 74.1299 99.9721 74.1299C99.6329 74.13 99.3324 74.223 99.0716 74.4076C98.8111 74.5899 98.607 74.8447 98.4593 75.1721C98.3139 75.4976 98.2409 75.8756 98.2409 76.3049C98.241 76.7364 98.3128 77.1182 98.4559 77.4505C98.5989 77.7805 98.7993 78.0397 99.0577 78.2266C99.3185 78.4136 99.6236 78.5066 99.9721 78.5066C100.208 78.5066 100.423 78.4631 100.617 78.3753C100.813 78.2853 100.977 78.1581 101.108 77.9943C101.242 77.8304 101.332 77.6348 101.378 77.4087H102.002C101.956 77.7293 101.841 78.0158 101.659 78.2673C101.479 78.5165 101.245 78.7132 100.956 78.8564C100.67 78.9995 100.341 79.0713 99.9721 79.0713C99.4967 79.0712 99.082 78.9523 98.7289 78.7146C98.3781 78.4769 98.106 78.1506 97.9121 77.7375C97.7184 77.3245 97.6217 76.854 97.6216 76.3258C97.6216 75.7927 97.7195 75.318 97.9156 74.9026C98.1141 74.4871 98.3885 74.1609 98.7393 73.9255C99.0901 73.6878 99.4978 73.5688 99.9616 73.5688ZM195.237 73.5688C195.525 73.5688 195.804 73.6219 196.071 73.7279C196.339 73.8318 196.579 73.9931 196.792 74.2101C197.006 74.4247 197.176 74.6957 197.3 75.0234C197.425 75.3488 197.487 75.7341 197.488 76.1794V76.485H193.53C193.539 76.8756 193.609 77.2198 193.745 77.5167C193.893 77.8305 194.102 78.0745 194.371 78.2475C194.641 78.4205 194.961 78.5066 195.33 78.5066C195.582 78.5066 195.803 78.4678 195.992 78.3893C196.184 78.3109 196.344 78.2059 196.473 78.0744C196.605 77.9405 196.704 77.7934 196.771 77.6341L197.356 77.8246C197.275 78.0485 197.142 78.2547 196.958 78.4439C196.775 78.6332 196.547 78.7862 196.272 78.9017C196 79.0147 195.685 79.0713 195.33 79.0713C194.834 79.0712 194.405 78.9557 194.043 78.7251C193.68 78.4919 193.4 78.1693 193.201 77.7584C193.005 77.3454 192.906 76.8704 192.906 76.3328C192.906 75.7973 193.005 75.3215 193.201 74.9061C193.4 74.4882 193.673 74.1609 194.022 73.9255C194.373 73.6878 194.778 73.5688 195.237 73.5688ZM214.131 73.5688C214.42 73.5688 214.699 73.6218 214.966 73.7279C215.234 73.8318 215.474 73.9932 215.687 74.2101C215.901 74.4247 216.071 74.6958 216.196 75.0234C216.32 75.3487 216.383 75.7342 216.383 76.1794V76.485H212.424C212.433 76.8756 212.503 77.2198 212.639 77.5167C212.787 77.8305 212.996 78.0745 213.265 78.2475C213.536 78.4207 213.856 78.5066 214.225 78.5066C214.477 78.5066 214.697 78.4677 214.886 78.3893C215.078 78.3109 215.238 78.2058 215.367 78.0744C215.499 77.9405 215.599 77.7934 215.666 77.6341L216.25 77.8246C216.17 78.0483 216.037 78.2548 215.853 78.4439C215.671 78.6331 215.442 78.7863 215.167 78.9017C214.895 79.0148 214.581 79.0713 214.225 79.0713C213.729 79.0713 213.299 78.9559 212.937 78.7251C212.574 78.4919 212.294 78.1692 212.096 77.7584C211.899 77.3454 211.802 76.8703 211.802 76.3328C211.802 75.7974 211.899 75.3215 212.096 74.9061C212.294 74.4883 212.567 74.1609 212.916 73.9255C213.266 73.6878 213.672 73.5689 214.131 73.5688ZM256.848 73.5688C257.307 73.5688 257.712 73.6854 258.063 73.9185C258.414 74.1516 258.688 74.4754 258.887 74.8886C259.088 75.3018 259.188 75.7811 259.188 76.3258C259.188 76.8656 259.089 77.3419 258.89 77.7549C258.692 78.1658 258.416 78.4884 258.063 78.7216C257.712 78.9547 257.307 79.0713 256.848 79.0713C256.389 79.0713 255.982 78.9546 255.629 78.7216C255.278 78.4884 255.003 78.1658 254.804 77.7549C254.606 77.342 254.507 76.8655 254.507 76.3258C254.507 75.7812 254.606 75.3017 254.804 74.8886C255.003 74.4731 255.278 74.1493 255.629 73.9185C255.982 73.6855 256.389 73.5688 256.848 73.5688ZM274.58 73.5688C274.868 73.5688 275.147 73.6218 275.414 73.7279C275.682 73.8318 275.922 73.9931 276.135 74.2101C276.349 74.4247 276.519 74.6958 276.643 75.0234C276.768 75.3488 276.83 75.7341 276.83 76.1794V76.485H272.872C272.88 76.8756 272.95 77.2198 273.087 77.5167C273.235 77.8306 273.444 78.0744 273.714 78.2475C273.984 78.4204 274.304 78.5066 274.673 78.5066C274.924 78.5066 275.145 78.4676 275.334 78.3893C275.526 78.3108 275.687 78.206 275.816 78.0744C275.948 77.9405 276.047 77.7934 276.114 77.6341L276.699 77.8246C276.618 78.0484 276.485 78.2547 276.301 78.4439C276.118 78.6331 275.89 78.7863 275.615 78.9017C275.343 79.0148 275.028 79.0713 274.673 79.0713C274.177 79.0713 273.748 78.9557 273.386 78.7251C273.023 78.4919 272.742 78.1693 272.543 77.7584C272.347 77.3455 272.249 76.8702 272.249 76.3328C272.249 75.7975 272.347 75.3215 272.543 74.9061C272.742 74.4882 273.016 74.1609 273.365 73.9255C273.715 73.6879 274.121 73.5688 274.58 73.5688ZM293.028 73.5688C293.383 73.5688 293.705 73.6384 293.993 73.7767C294.282 73.9129 294.52 74.106 294.707 74.3553C294.896 74.6023 295.015 74.8908 295.063 75.2209H294.441C294.376 74.9208 294.219 74.6641 293.972 74.4518C293.728 74.2374 293.417 74.13 293.038 74.1299C292.699 74.1299 292.399 74.223 292.138 74.4076C291.877 74.59 291.672 74.8444 291.524 75.1721C291.379 75.4976 291.307 75.8756 291.307 76.3049C291.307 76.7363 291.378 77.1183 291.521 77.4505C291.664 77.7806 291.865 78.0396 292.124 78.2266C292.385 78.4135 292.69 78.5066 293.038 78.5066C293.274 78.5066 293.488 78.463 293.682 78.3753C293.878 78.2853 294.042 78.1581 294.173 77.9943C294.307 77.8304 294.398 77.6349 294.444 77.4087H295.067C295.021 77.7294 294.906 78.0158 294.724 78.2673C294.544 78.5166 294.31 78.7132 294.021 78.8564C293.735 78.9994 293.408 79.0713 293.038 79.0713C292.563 79.0713 292.148 78.9523 291.795 78.7146C291.444 78.4768 291.172 78.1507 290.978 77.7375C290.785 77.3245 290.687 76.8541 290.687 76.3258C290.687 75.7928 290.785 75.318 290.981 74.9026C291.179 74.4871 291.455 74.1609 291.806 73.9255C292.156 73.6879 292.564 73.5688 293.028 73.5688ZM310.666 73.5688C311.125 73.5689 311.531 73.6854 311.881 73.9185C312.232 74.1516 312.507 74.4755 312.705 74.8886C312.906 75.3018 313.006 75.7812 313.006 76.3258C313.006 76.8656 312.907 77.3419 312.708 77.7549C312.51 78.1657 312.234 78.4884 311.881 78.7216C311.531 78.9546 311.125 79.0712 310.666 79.0713C310.207 79.0713 309.799 78.9547 309.446 78.7216C309.095 78.4884 308.821 78.1657 308.622 77.7549C308.424 77.3419 308.325 76.8656 308.325 76.3258C308.325 75.7812 308.424 75.3018 308.622 74.8886C308.821 74.4732 309.095 74.1493 309.446 73.9185C309.799 73.6853 310.207 73.5688 310.666 73.5688ZM158.277 76.6198L160.189 71.869H160.875L158.427 77.8804C158.328 78.1158 158.214 78.322 158.087 78.4997C157.962 78.675 157.798 78.8129 157.595 78.9121C157.392 79.0089 157.125 79.0573 156.792 79.0574H156.422V78.4509H156.775C156.973 78.4509 157.138 78.4202 157.27 78.3579C157.404 78.2933 157.515 78.2038 157.602 78.0907C157.692 77.9754 157.77 77.8409 157.835 77.6864L157.952 77.4017L155.511 71.869H156.207L158.277 76.6198ZM237.846 71.7725C238.224 71.7726 238.572 71.8314 238.888 71.9491C239.204 72.0646 239.483 72.2283 239.726 72.4406C239.97 72.6507 240.172 72.8956 240.329 73.1749C240.488 73.4539 240.596 73.7572 240.654 74.0846H240.002C239.954 73.8425 239.866 73.6184 239.739 73.4131C239.615 73.2054 239.458 73.0239 239.269 72.8693C239.08 72.7147 238.864 72.5946 238.624 72.5092C238.384 72.4239 238.125 72.3814 237.846 72.3814C237.398 72.3814 236.989 72.498 236.62 72.7311C236.253 72.9642 235.958 73.307 235.737 73.7593C235.518 74.2094 235.408 74.7617 235.408 75.4149C235.408 76.0726 235.518 76.6264 235.737 77.0764C235.958 77.5265 236.253 77.868 236.62 78.1012C236.989 78.332 237.398 78.4474 237.846 78.4474C238.125 78.4474 238.384 78.4049 238.624 78.3196C238.864 78.2342 239.08 78.1152 239.269 77.9629C239.458 77.8083 239.615 77.6268 239.739 77.4191C239.866 77.2115 239.954 76.9864 240.002 76.7441H240.654C240.596 77.0695 240.488 77.3734 240.329 77.655C240.172 77.9343 239.97 78.1792 239.726 78.3893C239.483 78.5992 239.204 78.7631 238.888 78.8808C238.572 78.9985 238.224 79.0573 237.846 79.0574C237.25 79.0574 236.721 78.9078 236.26 78.61C235.798 78.31 235.435 77.8882 235.172 77.3436C234.911 76.7989 234.781 76.1558 234.781 75.4149C234.781 74.6741 234.911 74.031 235.172 73.4863C235.435 72.9415 235.798 72.52 236.26 72.2222C236.721 71.9221 237.25 71.7725 237.846 71.7725ZM79.757 75.0373H80.3972L83.0113 71.869H83.7805L81.1524 75.0652L83.9954 78.9598H83.2193L80.7783 75.616H79.757V78.9598H79.1087V71.869H79.757V75.0373ZM92.2411 76.0133H95.0528V73.642H95.6697V78.9598H95.0528V76.5954H92.2411V78.9598H91.6253V73.642H92.2411V76.0133ZM114.01 78.9598H113.389V74.2241H111.215L111.114 76.3386C111.093 76.7703 111.059 77.1506 111.011 77.4784C110.965 77.8061 110.888 78.0794 110.782 78.2987C110.678 78.5178 110.533 78.6828 110.346 78.7936C110.162 78.9044 109.919 78.9597 109.619 78.9598H109.397V78.3788H109.563C109.752 78.3788 109.906 78.3435 110.021 78.2743C110.138 78.2027 110.229 78.0823 110.294 77.9141C110.359 77.7456 110.407 77.5157 110.439 77.2251C110.471 76.9344 110.497 76.57 110.516 76.1318L110.63 73.642H114.01V78.9598ZM119.639 74.2241H117.88V78.9598H117.263V74.2241H115.483V73.642H119.639V74.2241ZM122.143 78.0849L124.951 73.642H125.689V78.9598H125.072V74.518L122.274 78.9598H121.526V73.642H122.143V78.0849ZM128.516 76.0133H131.328V73.642H131.945V78.9598H131.328V76.5954H128.516V78.9598H127.901V73.642H128.516V76.0133ZM137.331 74.2241H134.787V78.9598H134.17V73.642H137.331V74.2241ZM166.19 78.9598H165.57V74.2241H162.783V78.9598H162.163V73.642H166.19V78.9598ZM182.946 73.642C183.511 73.642 183.957 73.7645 184.282 74.0091C184.61 74.2537 184.773 74.5837 184.773 74.999C184.773 75.3152 184.683 75.5684 184.5 75.7577C184.318 75.947 184.073 76.0812 183.766 76.1597C183.971 76.1943 184.162 76.2686 184.338 76.3839C184.515 76.4993 184.659 76.6525 184.77 76.8417C184.881 77.0309 184.936 77.2572 184.936 77.5202C184.936 77.797 184.866 78.0435 184.728 78.2603C184.59 78.4773 184.395 78.6492 184.144 78.7739C183.892 78.8985 183.594 78.9597 183.25 78.9598H180.851V73.642H182.946ZM190.961 78.9598H190.342V74.2241H188.167L188.067 76.3386C188.046 76.7703 188.011 77.1506 187.963 77.4784C187.917 77.806 187.841 78.0795 187.735 78.2987C187.631 78.518 187.485 78.6828 187.298 78.7936C187.113 78.9044 186.871 78.9598 186.571 78.9598H186.35V78.3788H186.516C186.705 78.3788 186.857 78.3435 186.973 78.2743C187.09 78.2027 187.182 78.0826 187.247 77.9141C187.311 77.7456 187.36 77.5156 187.392 77.2251C187.424 76.9344 187.449 76.57 187.468 76.1318L187.583 73.642H190.961V78.9598ZM200.047 76.0133H202.859V73.642H203.475V78.9598H202.859V76.5954H200.047V78.9598H199.431V73.642H200.047V76.0133ZM206.316 78.0849L209.125 73.642H209.862V78.9598H209.247V74.518L206.449 78.9598H205.701V73.642H206.316V78.0849ZM246.461 74.2241H244.702V78.9598H244.086V74.2241H242.306V73.642H246.461V74.2241ZM261.743 78.0849L264.551 73.642H265.289V78.9598H264.672V74.518L261.874 78.9598H261.126V73.642H261.743V78.0849ZM270.911 74.2241H269.152V78.9598H268.536V74.2241H266.756V73.642H270.911V74.2241ZM282.863 78.9598H282.242V74.2241H280.069L279.967 76.3386C279.947 76.7703 279.913 77.1506 279.864 77.4784C279.818 77.8061 279.741 78.0794 279.635 78.2987C279.531 78.5178 279.386 78.6828 279.199 78.7936C279.015 78.9044 278.772 78.9598 278.472 78.9598H278.25V78.3788H278.416C278.606 78.3788 278.759 78.3435 278.874 78.2743C278.992 78.2027 279.083 78.0824 279.147 77.9141C279.212 77.7456 279.26 77.5157 279.292 77.2251C279.325 76.9344 279.351 76.57 279.369 76.1318L279.483 73.642H282.863V78.9598ZM285.698 75.695H287.149C287.746 75.695 288.208 75.841 288.534 76.1318C288.859 76.4226 289.022 76.8162 289.022 77.3122C289.022 77.6423 288.949 77.9309 288.803 78.1778C288.658 78.4248 288.446 78.618 288.167 78.7564C287.887 78.8926 287.548 78.9597 287.149 78.9598H285.081V73.642H285.698V75.695ZM300.688 74.2241H298.929V78.9598H298.313V74.2241H296.533V73.642H300.688V74.2241ZM304.671 73.642C305.236 73.642 305.683 73.7644 306.008 74.0091C306.336 74.2537 306.499 74.5838 306.5 74.999C306.5 75.3153 306.408 75.5684 306.225 75.7577C306.043 75.9468 305.798 76.0812 305.491 76.1597C305.696 76.1943 305.887 76.2686 306.063 76.3839C306.24 76.4994 306.385 76.6524 306.496 76.8417C306.607 77.0309 306.662 77.2573 306.662 77.5202C306.662 77.7969 306.592 78.0435 306.454 78.2603C306.316 78.4773 306.12 78.6492 305.869 78.7739C305.617 78.8983 305.319 78.9598 304.975 78.9598H302.576V73.642H304.671ZM107.079 76.1527C107.033 76.1965 106.955 76.2355 106.847 76.2701C106.741 76.3046 106.617 76.3354 106.476 76.363C106.338 76.3884 106.2 76.4108 106.061 76.4292C105.923 76.4477 105.798 76.4642 105.687 76.478C105.387 76.515 105.13 76.5727 104.918 76.6512C104.706 76.7296 104.543 76.8381 104.43 76.9765C104.317 77.1126 104.26 77.2882 104.26 77.5028C104.261 77.8259 104.376 78.0768 104.607 78.2545C104.837 78.4298 105.127 78.5171 105.476 78.5171C105.804 78.5171 106.087 78.4441 106.327 78.2987C106.567 78.1533 106.752 77.9611 106.882 77.7212C107.013 77.4788 107.079 77.2116 107.079 76.9207V76.1527ZM178.009 76.1527C177.963 76.1964 177.886 76.2356 177.778 76.2701C177.672 76.3047 177.548 76.3353 177.407 76.363C177.269 76.3884 177.13 76.4108 176.991 76.4292C176.853 76.4477 176.728 76.4642 176.617 76.478C176.317 76.515 176.061 76.5727 175.849 76.6512C175.637 76.7296 175.474 76.838 175.361 76.9765C175.248 77.1127 175.192 77.2881 175.192 77.5028C175.192 77.8259 175.307 78.0768 175.538 78.2545C175.769 78.4296 176.059 78.5171 176.407 78.5171C176.734 78.517 177.019 78.444 177.259 78.2987C177.498 78.1533 177.684 77.9611 177.813 77.7212C177.944 77.4788 178.009 77.2116 178.009 76.9207V76.1527ZM87.3462 74.1299C86.9796 74.13 86.667 74.2303 86.4086 74.4309C86.1524 74.6317 85.9569 74.899 85.823 75.2314C85.6915 75.5637 85.6255 75.9289 85.6255 76.3258C85.6256 76.7226 85.6916 77.0858 85.823 77.4157C85.9569 77.7458 86.1524 78.0107 86.4086 78.2092C86.6647 78.4075 86.9772 78.5066 87.3462 78.5066C87.7155 78.5066 88.0288 78.4077 88.285 78.2092C88.5412 78.0107 88.7355 77.7458 88.8671 77.4157C89.0008 77.0858 89.0669 76.7225 89.0669 76.3258C89.0669 75.9289 89.0009 75.5637 88.8671 75.2314C88.7355 74.899 88.5412 74.6317 88.285 74.4309C88.0288 74.2301 87.7155 74.1299 87.3462 74.1299ZM170.639 74.1299C170.293 74.13 169.999 74.2242 169.756 74.4111C169.514 74.5958 169.329 74.8515 169.202 75.1791C169.078 75.5046 169.015 75.8802 169.015 76.3049C169.015 76.734 169.079 77.1148 169.206 77.447C169.335 77.7771 169.52 78.0373 169.76 78.2266C170.002 78.4136 170.296 78.5066 170.639 78.5066C170.993 78.5066 171.291 78.41 171.533 78.2162C171.778 78.02 171.964 77.755 172.091 77.4226C172.22 77.0904 172.285 76.7178 172.285 76.3049C172.285 75.8964 172.221 75.5278 172.094 75.2C171.969 74.8722 171.785 74.612 171.54 74.4204C171.295 74.2267 170.995 74.1299 170.639 74.1299ZM250.582 74.1299C250.236 74.13 249.941 74.2242 249.699 74.4111C249.457 74.5957 249.272 74.8515 249.145 75.1791C249.02 75.5046 248.959 75.8802 248.959 76.3049C248.959 76.734 249.021 77.1148 249.148 77.447C249.277 77.7771 249.462 78.0373 249.702 78.2266C249.945 78.4136 250.238 78.5066 250.582 78.5066C250.935 78.5066 251.233 78.41 251.475 78.2162C251.72 78.02 251.906 77.755 252.033 77.4226C252.162 77.0904 252.227 76.7178 252.227 76.3049C252.227 75.8964 252.163 75.5278 252.037 75.2C251.912 74.8722 251.727 74.612 251.482 74.4204C251.238 74.2267 250.937 74.1299 250.582 74.1299ZM256.848 74.1299C256.481 74.1299 256.167 74.2301 255.909 74.4309C255.653 74.6317 255.457 74.899 255.323 75.2314C255.192 75.5637 255.127 75.9289 255.127 76.3258C255.127 76.7225 255.192 77.0858 255.323 77.4157C255.457 77.7458 255.653 78.0107 255.909 78.2092C256.165 78.4077 256.478 78.5066 256.848 78.5066C257.217 78.5066 257.529 78.4075 257.785 78.2092C258.042 78.0107 258.236 77.7458 258.367 77.4157C258.501 77.0858 258.568 76.7226 258.568 76.3258C258.568 75.9289 258.501 75.5637 258.367 75.2314C258.236 74.899 258.042 74.6317 257.785 74.4309C257.529 74.2303 257.217 74.13 256.848 74.1299ZM310.666 74.1299C310.299 74.1299 309.986 74.2302 309.727 74.4309C309.471 74.6317 309.275 74.899 309.142 75.2314C309.01 75.5637 308.944 75.9289 308.944 76.3258C308.944 76.7225 309.01 77.0858 309.142 77.4157C309.275 77.7458 309.471 78.0107 309.727 78.2092C309.983 78.4076 310.297 78.5066 310.666 78.5066C311.035 78.5065 311.348 78.4075 311.604 78.2092C311.86 78.0107 312.054 77.7458 312.186 77.4157C312.319 77.0858 312.387 76.7225 312.387 76.3258C312.387 75.9289 312.319 75.5637 312.186 75.2314C312.054 74.899 311.86 74.6317 311.604 74.4309C311.348 74.2303 311.035 74.13 310.666 74.1299ZM181.439 78.3893H183.25C183.575 78.3892 183.832 78.3056 184.022 78.1395C184.211 77.971 184.306 77.7473 184.306 77.4679C184.306 77.1702 184.216 76.9323 184.036 76.7546C183.858 76.5747 183.619 76.485 183.319 76.485H181.439V78.3893ZM303.165 78.3893H304.975C305.301 78.3893 305.559 78.3057 305.748 78.1395C305.937 77.971 306.031 77.7472 306.031 77.4679C306.031 77.1702 305.942 76.9323 305.762 76.7546C305.584 76.5745 305.345 76.485 305.045 76.485H303.165V78.3893ZM285.698 78.3788H287.149C287.525 78.3787 287.828 78.2881 288.059 78.1081C288.289 77.9281 288.405 77.6724 288.405 77.3401C288.405 77.0008 288.289 76.7382 288.059 76.5536C287.828 76.3692 287.525 76.2771 287.149 76.277H285.698V78.3788ZM146.627 75.3174C147.095 75.3174 147.476 75.6975 147.476 76.1655C147.475 76.6333 147.095 77.0125 146.627 77.0125C146.16 77.0124 145.781 76.6333 145.78 76.1655C145.78 75.6975 146.159 75.3174 146.627 75.3174ZM225.551 75.3174C226.019 75.3174 226.398 75.6975 226.398 76.1655C226.398 76.6333 226.019 77.0125 225.551 77.0125C225.083 77.0125 224.704 76.6333 224.704 76.1655C224.704 75.6975 225.083 75.3174 225.551 75.3174ZM195.237 74.1299C194.9 74.1299 194.603 74.2206 194.347 74.4007C194.091 74.5807 193.891 74.8187 193.745 75.114C193.622 75.3692 193.553 75.6448 193.535 75.9413H196.858C196.858 75.5996 196.788 75.2923 196.65 75.0199C196.514 74.7452 196.323 74.5286 196.078 74.3693C195.836 74.21 195.556 74.13 195.237 74.1299ZM214.131 74.1299C213.794 74.13 213.498 74.2207 213.242 74.4007C212.986 74.5807 212.785 74.8186 212.639 75.114C212.516 75.3691 212.448 75.6449 212.429 75.9413H215.752C215.752 75.5996 215.682 75.2923 215.544 75.0199C215.408 74.7455 215.218 74.5285 214.973 74.3693C214.731 74.21 214.45 74.1299 214.131 74.1299ZM274.58 74.1299C274.243 74.1299 273.946 74.2206 273.69 74.4007C273.434 74.5807 273.232 74.8186 273.087 75.114C272.964 75.3691 272.895 75.6449 272.877 75.9413H276.2C276.2 75.5997 276.131 75.2923 275.993 75.0199C275.857 74.7453 275.666 74.5285 275.421 74.3693C275.179 74.2101 274.898 74.13 274.58 74.1299ZM181.439 75.9378H182.983C183.223 75.9378 183.431 75.9001 183.607 75.8262C183.782 75.7524 183.917 75.6486 184.011 75.5149C184.108 75.3787 184.156 75.2197 184.154 75.0373C184.154 74.7765 184.047 74.574 183.835 74.4309C183.622 74.2858 183.326 74.2137 182.946 74.2136H181.439V75.9378ZM303.165 75.9378H304.709C304.949 75.9378 305.156 75.9 305.332 75.8262C305.507 75.7524 305.643 75.6488 305.737 75.5149C305.834 75.3787 305.881 75.2196 305.879 75.0373C305.879 74.7765 305.773 74.574 305.561 74.4309C305.348 74.2856 305.051 74.2136 304.671 74.2136H303.165V75.9378ZM143.155 34.3469C144.001 34.3469 144.74 34.9194 144.952 35.7388L148.852 50.8429C148.87 50.9117 148.932 50.9601 149.003 50.9603C149.075 50.9603 149.138 50.9119 149.156 50.8429L153.113 35.7319C153.327 34.9158 154.064 34.3469 154.908 34.3469H158.68C159.955 34.3469 160.851 35.6016 160.436 36.8066L152.505 59.8577C152.081 61.131 151.479 62.2535 150.701 63.2236C149.933 64.2036 148.937 64.9719 147.715 65.5276C146.502 66.0833 145.006 66.3606 143.228 66.3606C142.339 66.3606 141.5 66.2906 140.712 66.1492C140.582 66.1275 140.454 66.1037 140.33 66.0795C139.38 65.8943 138.898 64.9039 139.18 63.9777L139.763 62.0595C140.067 61.061 141.133 60.5591 142.173 60.6525C142.211 60.6559 142.25 60.6591 142.288 60.6617C142.884 60.7022 143.395 60.6059 143.819 60.3736C144.254 60.1513 144.587 59.7518 144.82 59.1757L144.84 59.1258C145.013 58.7085 145.026 58.2422 144.88 57.8152L137.674 36.8043C137.261 35.5998 138.156 34.3471 139.43 34.3469H143.155ZM121.325 34.0437C123.77 34.0437 125.868 34.5494 127.616 35.5599C129.374 36.5604 130.723 37.9652 131.663 39.774C132.613 41.5727 133.088 43.6693 133.088 46.0642C133.088 48.449 132.613 50.5457 131.663 52.3545C130.723 54.1531 129.374 55.558 127.616 56.5685C125.868 57.569 123.77 58.0697 121.325 58.0697C118.879 58.0696 116.778 57.5689 115.019 56.5685C113.271 55.558 111.921 54.1532 110.971 52.3545C110.032 50.5457 109.562 48.4489 109.562 46.0642C109.562 43.6695 110.032 41.5726 110.971 39.774C111.921 37.9651 113.271 36.5604 115.019 35.5599C116.778 34.5494 118.879 34.0438 121.325 34.0437ZM84.1139 26.5858C84.7765 26.5859 85.3892 26.9393 85.7208 27.5129L90.7923 36.2872C90.8298 36.3522 90.8996 36.3928 90.9747 36.393C91.0496 36.393 91.1193 36.3531 91.1571 36.2884L96.289 27.5048C96.6218 26.9355 97.2317 26.5858 97.8912 26.5858H101.936C103.38 26.5858 104.272 28.164 103.525 29.4009L96.4435 41.1333C96.0829 41.7311 96.0883 42.481 96.4575 43.0736L103.759 54.7921C104.529 56.0282 103.641 57.629 102.184 57.6293H97.9795C97.3213 57.6293 96.7117 57.2814 96.3785 56.7138L91.1571 47.8209C91.119 47.7562 91.0498 47.7164 90.9747 47.7164C90.8996 47.7164 90.8303 47.7562 90.7923 47.8209L85.5709 56.7138C85.2376 57.2813 84.628 57.6293 83.9699 57.6293H79.8186C78.3638 57.6293 77.4741 56.0319 78.2408 54.7956L85.5105 43.0736C85.878 42.481 85.8816 41.7324 85.521 41.1357L78.4278 29.4021C77.6802 28.1653 78.571 26.5861 80.0161 26.5858H84.1139ZM171.848 34.3469C171.967 34.347 172.084 34.3579 172.197 34.3795C172.308 34.3593 172.422 34.3469 172.539 34.3469H173.987C174.771 34.3469 175.47 34.8398 175.734 35.5785L179.068 44.914C179.65 46.5457 181.953 46.5596 182.555 44.9349L186.033 35.5576C186.303 34.8299 186.997 34.3469 187.773 34.3469H189.229C189.389 34.347 189.542 34.3671 189.688 34.4039C189.833 34.3674 189.985 34.347 190.141 34.3469H193.357C194.382 34.347 195.213 35.1775 195.213 36.2024V55.7738C195.213 56.7987 194.382 57.6292 193.357 57.6293H190.141C189.116 57.6292 188.286 56.7987 188.286 55.7738V43.9903L183.614 56.4268C183.342 57.1504 182.65 57.6292 181.877 57.6293H179.7C178.921 57.6293 178.225 57.1432 177.957 56.4117L173.703 44.7874V55.7738C173.703 56.7986 172.873 57.6291 171.848 57.6293H168.541C167.516 57.6293 166.685 56.7988 166.684 55.7738V36.2024C166.685 35.1774 167.516 34.3469 168.541 34.3469H171.848ZM217.061 26.5858C219.385 26.5858 221.331 26.9143 222.897 27.571C224.474 28.2278 225.656 29.1471 226.444 30.3293C227.243 31.5116 227.642 32.8813 227.642 34.4376C227.642 35.6199 227.395 36.6762 226.9 37.6059C226.405 38.5255 225.722 39.2885 224.853 39.8948C224.018 40.4767 223.058 40.8912 221.972 41.138C221.893 41.1561 221.836 41.2265 221.836 41.3076C221.837 41.3992 221.909 41.4745 222 41.4807C223.191 41.5619 224.293 41.8974 225.308 42.4869C226.379 43.1033 227.238 43.9625 227.885 45.0639C228.532 46.1552 228.855 47.449 228.855 48.9445C228.855 50.6115 228.43 52.1018 227.582 53.4153C226.733 54.7188 225.505 55.7502 223.899 56.5081C222.292 57.2559 220.341 57.6292 218.048 57.6293H205.973C204.948 57.6293 204.117 56.7988 204.117 55.7738V28.4412C204.117 27.4164 204.948 26.5858 205.973 26.5858H217.061ZM240.187 34.3469C241.212 34.347 242.042 35.1775 242.042 36.2024V40.736C242.042 42.66 244.61 43.3128 245.529 41.6225L248.958 35.3159C249.282 34.7185 249.909 34.3469 250.589 34.3469H254.754C255.779 34.3471 256.61 35.1776 256.61 36.2024V55.7738C256.61 56.7987 255.779 57.6291 254.754 57.6293H251.447C250.422 57.6293 249.591 56.7988 249.591 55.7738V51.2287C249.59 49.3028 247.019 48.6519 246.103 50.3457L242.691 56.6568C242.366 57.2563 241.739 57.6293 241.057 57.6293H236.88C235.855 57.6293 235.025 56.7988 235.025 55.7738V36.2024C235.025 35.1774 235.855 34.3469 236.88 34.3469H240.187ZM283.558 34.3469C284.583 34.347 285.413 35.1774 285.413 36.2024V55.7738C285.413 56.7988 284.583 57.6293 283.558 57.6293H280.251C279.226 57.6292 278.396 56.7988 278.395 55.7738V41.8711C278.395 40.8464 277.564 40.0156 276.539 40.0156H275.333C274.347 40.0156 273.533 40.7867 273.48 41.7712L273.211 46.716C273.12 48.6864 272.862 50.3687 272.438 51.7631C272.023 53.1476 271.458 54.27 270.74 55.129C270.033 55.9878 269.193 56.6187 268.223 57.0228C267.253 57.427 266.157 57.6293 264.934 57.6293H264.593C263.574 57.6291 262.745 56.8078 262.737 55.7889L262.713 52.6577C262.71 52.2485 263.04 51.9153 263.449 51.9153C263.954 51.9153 264.394 51.7841 264.768 51.5215C265.142 51.2587 265.455 50.8391 265.708 50.2632C265.961 49.6771 266.163 48.924 266.315 48.0045C266.466 47.0849 266.561 45.9675 266.602 44.6537L266.915 36.1339C266.952 35.1364 267.771 34.3471 268.77 34.3469H283.558ZM312.172 34.3469C313.197 34.3469 314.028 35.1774 314.028 36.2024V55.7738C314.028 56.7988 313.197 57.6293 312.172 57.6293H308.866C307.841 57.6293 307.01 56.7988 307.01 55.7738V41.8711C307.009 40.8464 306.179 40.0157 305.154 40.0156H303.947C302.961 40.0159 302.147 40.7869 302.094 41.7712L301.825 46.716C301.734 48.6863 301.477 50.3687 301.053 51.7631C300.638 53.1476 300.073 54.27 299.355 55.129C298.648 55.9879 297.809 56.6186 296.839 57.0228C295.869 57.427 294.772 57.6293 293.55 57.6293H293.208C292.189 57.6293 291.36 56.808 291.351 55.7889L291.327 52.6577C291.324 52.2486 291.654 51.9155 292.064 51.9153C292.569 51.9153 293.008 51.784 293.382 51.5215C293.756 51.2588 294.07 50.839 294.322 50.2632C294.575 49.6771 294.777 48.924 294.929 48.0045C295.08 47.0849 295.176 45.9675 295.217 44.6537L295.53 36.1339C295.567 35.1363 296.386 34.3469 297.385 34.3469H312.172ZM121.37 39.5311C120.451 39.5312 119.672 39.8035 119.036 40.3491C118.409 40.8947 117.93 41.653 117.596 42.6228C117.273 43.593 117.111 44.7254 117.111 46.0189C117.111 47.2921 117.273 48.4136 117.596 49.3836C117.93 50.3536 118.409 51.1117 119.036 51.6574C119.672 52.203 120.451 52.4764 121.37 52.4765C122.259 52.4765 123.012 52.203 123.629 51.6574C124.245 51.1117 124.716 50.3538 125.039 49.3836C125.372 48.4136 125.539 47.292 125.539 46.0189C125.539 44.7254 125.373 43.593 125.039 42.6228C124.716 41.6529 124.245 40.8947 123.629 40.3491C123.012 39.8037 122.259 39.5311 121.37 39.5311ZM213.476 44.1844C212.451 44.1844 211.621 45.0151 211.62 46.0398V49.7252C211.62 50.7502 212.451 51.5818 213.476 51.5819H216.258C217.885 51.5819 219.083 51.2734 219.851 50.657C220.629 50.0406 221.019 49.1815 221.019 48.08C221.019 47.2819 220.831 46.5949 220.457 46.0189C220.083 45.4328 219.553 44.9821 218.866 44.6688C218.178 44.3455 217.354 44.1844 216.394 44.1844H213.476ZM213.476 32.5426C212.451 32.5426 211.62 33.3743 211.62 34.3992V37.4932C211.62 38.5181 212.451 39.3487 213.476 39.3487H215.774C216.592 39.3487 217.319 39.2125 217.956 38.9398C218.593 38.6669 219.088 38.2724 219.442 37.757C219.806 37.2417 219.987 36.6197 219.987 35.8922C219.987 34.8516 219.618 34.0333 218.881 33.4372C218.143 32.841 217.148 32.5426 215.895 32.5426H213.476ZM51.4787 7.89388C51.7042 7.89411 51.8968 8.05619 51.9353 8.27846L52.393 10.9391C52.464 11.3543 51.9891 11.6418 51.6541 11.3864L48.1744 8.72693C47.822 8.45744 48.013 7.89396 48.4567 7.89388H51.4787Z" fill="white"/>
</svg>
