<svg width="264" height="74" viewBox="0 0 264 74" fill="none" xmlns="http://www.w3.org/2000/svg">
<path d="M119.9 29.7431C120.611 29.7431 121.233 30.2243 121.41 30.9131L124.689 43.6084C124.704 43.6662 124.756 43.7069 124.816 43.707C124.876 43.707 124.928 43.6664 124.944 43.6084L128.27 30.9072C128.45 30.2212 129.069 29.7431 129.779 29.7431H132.95C134.021 29.7431 134.774 30.7977 134.425 31.8105L127.759 51.1855C127.402 52.2558 126.897 53.1992 126.242 54.0146C125.597 54.8383 124.76 55.4841 123.733 55.9511C122.713 56.4182 121.456 56.6513 119.961 56.6513C119.214 56.6513 118.509 56.5924 117.847 56.4736C117.737 56.4553 117.63 56.4354 117.526 56.415C116.727 56.2594 116.322 55.4269 116.559 54.6484L117.049 53.0361C117.305 52.1968 118.201 51.775 119.075 51.8535C119.107 51.8564 119.139 51.8591 119.171 51.8613C119.672 51.8953 120.102 51.8144 120.458 51.6191C120.824 51.4322 121.104 51.0964 121.299 50.6123L121.317 50.5703C121.461 50.2195 121.473 49.8277 121.35 49.4687L115.293 31.8086C114.946 30.7962 115.699 29.7432 116.769 29.7431H119.9ZM101.551 29.4883C103.607 29.4883 105.37 29.9133 106.839 30.7627C108.317 31.6036 109.451 32.7844 110.241 34.3047C111.039 35.8165 111.439 37.5788 111.439 39.5918C111.439 41.5962 111.039 43.3585 110.241 44.8789C109.451 46.3907 108.317 47.5715 106.839 48.4209C105.37 49.2618 103.607 49.6826 101.551 49.6826C99.4957 49.6825 97.7291 49.2617 96.2513 48.4209C94.7819 47.5715 93.6473 46.3908 92.8489 44.8789C92.0592 43.3586 91.6644 41.5961 91.6644 39.5918C91.6644 37.5789 92.0591 35.8165 92.8489 34.3047C93.6473 32.7843 94.7818 31.6036 96.2513 30.7627C97.7291 29.9133 99.4957 29.4883 101.551 29.4883ZM70.2747 23.2197C70.8316 23.2198 71.3466 23.5169 71.6253 23.999L75.888 31.374C75.9196 31.4286 75.9782 31.4627 76.0413 31.4629C76.1043 31.4629 76.1629 31.4293 76.1946 31.375L80.5081 23.9922C80.7878 23.5137 81.3005 23.2197 81.8548 23.2197H85.2542C86.4685 23.2197 87.2176 24.5463 86.5901 25.5859L80.638 35.4472C80.3348 35.9497 80.3394 36.58 80.6497 37.0781L86.7864 46.9277C87.4338 47.9667 86.6872 49.3122 85.4632 49.3125H81.929C81.3758 49.3125 80.8634 49.02 80.5833 48.5429L76.1946 41.0683C76.1626 41.0139 76.1044 40.9804 76.0413 40.9804C75.9782 40.9805 75.9199 41.0139 75.888 41.0683L71.4993 48.5429C71.2192 49.02 70.7068 49.3125 70.1536 49.3125H66.6644C65.4416 49.3125 64.6938 47.9698 65.3382 46.9306L71.4485 37.0781C71.7574 36.58 71.7604 35.9508 71.4573 35.4492L65.4954 25.5869C64.867 24.5474 65.6158 23.22 66.8304 23.2197H70.2747ZM144.017 29.7431C144.117 29.7432 144.216 29.7523 144.311 29.7705C144.403 29.7535 144.499 29.7431 144.598 29.7431H145.815C146.474 29.7431 147.062 30.1574 147.283 30.7783L150.085 38.625C150.575 39.9965 152.511 40.0081 153.017 38.6425L155.94 30.7607C156.167 30.1491 156.75 29.7431 157.403 29.7431H158.626C158.761 29.7432 158.889 29.7601 159.012 29.791C159.134 29.7603 159.261 29.7432 159.393 29.7431H162.096C162.957 29.7432 163.656 30.4412 163.656 31.3027V47.7529C163.656 48.6144 162.957 49.3124 162.096 49.3125H159.393C158.531 49.3123 157.833 48.6143 157.833 47.7529V37.8486L153.907 48.3017C153.678 48.9099 153.096 49.3124 152.447 49.3125H150.617C149.962 49.3125 149.377 48.9039 149.152 48.289L145.576 38.5185V47.7529C145.576 48.6143 144.878 49.3123 144.017 49.3125H141.238C140.376 49.3125 139.677 48.6144 139.677 47.7529V31.3027C139.677 30.4412 140.376 29.7431 141.238 29.7431H144.017ZM182.02 23.2197C183.973 23.2197 185.609 23.4958 186.925 24.0478C188.25 24.5999 189.244 25.3726 189.907 26.3662C190.578 27.36 190.913 28.5112 190.913 29.8193C190.913 30.8131 190.706 31.701 190.289 32.4824C189.873 33.2553 189.299 33.8966 188.569 34.4062C187.867 34.8954 187.06 35.2437 186.148 35.4511C186.081 35.4664 186.033 35.5256 186.033 35.5937C186.034 35.6707 186.094 35.734 186.171 35.7392C187.172 35.8075 188.099 36.0894 188.951 36.5849C189.852 37.1031 190.574 37.8252 191.117 38.7509C191.661 39.6682 191.933 40.7557 191.933 42.0127C191.933 43.4139 191.576 44.6664 190.863 45.7705C190.149 46.8661 189.117 47.7331 187.767 48.3701C186.416 48.9986 184.777 49.3124 182.849 49.3125H172.7C171.838 49.3125 171.14 48.6144 171.14 47.7529V24.7793C171.14 23.9178 171.838 23.2197 172.7 23.2197H182.02ZM201.457 29.7431C202.319 29.7432 203.017 30.4412 203.017 31.3027V35.1133C203.017 36.7304 205.175 37.2791 205.948 35.8584L208.829 30.5576C209.102 30.0554 209.629 29.7431 210.2 29.7431H213.701C214.563 29.7433 215.261 30.4413 215.261 31.3027V47.7529C215.261 48.6143 214.563 49.3123 213.701 49.3125H210.922C210.061 49.3125 209.362 48.6144 209.362 47.7529V43.9326C209.361 42.3139 207.2 41.7667 206.43 43.1904L203.562 48.4951C203.289 48.999 202.762 49.3125 202.189 49.3125H198.678C197.817 49.3125 197.118 48.6144 197.118 47.7529V31.3027C197.118 30.4412 197.816 29.7431 198.678 29.7431H201.457ZM237.911 29.7431C238.773 29.7431 239.471 30.4412 239.471 31.3027V47.7529C239.471 48.6144 238.773 49.3125 237.911 49.3125H235.132C234.271 49.3124 233.573 48.6144 233.573 47.7529V36.0674C233.572 35.206 232.873 34.5078 232.012 34.5078H230.998C230.17 34.5078 229.486 35.1559 229.441 35.9834L229.215 40.1396C229.139 41.7958 228.921 43.2097 228.565 44.3818C228.216 45.5455 227.741 46.4889 227.138 47.2109C226.543 47.9327 225.838 48.463 225.023 48.8027C224.207 49.1424 223.286 49.3125 222.258 49.3125H221.971C221.115 49.3123 220.418 48.622 220.411 47.7656L220.391 45.1338C220.388 44.7898 220.666 44.5097 221.01 44.5097C221.435 44.5097 221.804 44.3994 222.118 44.1787C222.433 43.9579 222.696 43.6051 222.908 43.1211C223.121 42.6285 223.291 41.9955 223.418 41.2226C223.546 40.4497 223.625 39.5104 223.659 38.4062L223.923 31.2451C223.954 30.4067 224.643 29.7433 225.482 29.7431H237.911ZM261.962 29.7431C262.824 29.7431 263.523 30.4412 263.523 31.3027V47.7529C263.523 48.6144 262.824 49.3125 261.962 49.3125H259.184C258.322 49.3125 257.623 48.6144 257.623 47.7529V36.0674C257.623 35.2061 256.925 34.5078 256.064 34.5078H255.049C254.221 34.508 253.536 35.1561 253.492 35.9834L253.266 40.1396C253.189 41.7957 252.973 43.2098 252.617 44.3818C252.268 45.5455 251.793 46.4889 251.19 47.2109C250.595 47.9328 249.89 48.463 249.075 48.8027C248.259 49.1424 247.338 49.3124 246.31 49.3125H246.023C245.166 49.3125 244.469 48.6221 244.462 47.7656L244.442 45.1338C244.439 44.7899 244.717 44.5099 245.061 44.5097C245.485 44.5097 245.855 44.3993 246.169 44.1787C246.483 43.9579 246.747 43.605 246.959 43.1211C247.172 42.6285 247.342 41.9954 247.469 41.2226C247.596 40.4497 247.677 39.5104 247.711 38.4062L247.975 31.2451C248.006 30.4066 248.694 29.7431 249.533 29.7431H261.962ZM101.589 34.1006C100.816 34.1006 100.162 34.3295 99.6272 34.7881C99.1007 35.2466 98.6976 35.884 98.4173 36.6992C98.1455 37.5146 98.0091 38.4665 98.0091 39.5537C98.0091 40.6238 98.1455 41.5665 98.4173 42.3818C98.6975 43.1971 99.1008 43.8343 99.6272 44.2929C100.162 44.7515 100.816 44.9813 101.589 44.9814C102.337 44.9814 102.969 44.7516 103.488 44.2929C104.006 43.8343 104.401 43.1972 104.673 42.3818C104.953 41.5665 105.093 40.6237 105.093 39.5537C105.093 38.4665 104.953 37.5146 104.673 36.6992C104.401 35.8839 104.006 35.2467 103.488 34.7881C102.97 34.3297 102.336 34.1006 101.589 34.1006ZM179.006 38.0117C178.145 38.0117 177.447 38.7099 177.447 39.5713V42.6689C177.447 43.5304 178.145 44.2294 179.006 44.2295H181.345C182.712 44.2295 183.719 43.9702 184.365 43.4521C185.019 42.934 185.346 42.2119 185.346 41.2861C185.346 40.6152 185.188 40.0378 184.874 39.5537C184.56 39.061 184.114 38.6822 183.536 38.4189C182.959 38.1472 182.266 38.0117 181.459 38.0117H179.006ZM179.006 28.2265C178.145 28.2266 177.447 28.9256 177.447 29.7871V32.3877C177.447 33.249 178.145 33.9472 179.006 33.9472H180.938C181.625 33.9472 182.237 33.8327 182.772 33.6035C183.307 33.3741 183.724 33.0425 184.021 32.6093C184.326 32.1762 184.479 31.6534 184.479 31.042C184.479 30.1673 184.169 29.4795 183.549 28.9785C182.929 28.4774 182.093 28.2266 181.039 28.2265H179.006Z" fill="white"/>
<path d="M26.81 73.7611C26.15 73.7611 25.51 73.4811 25.06 72.9611L0.58 44.9511C0.21 44.5311 0 43.9811 0 43.4111V20.1411C0 19.3811 0.37 18.6711 0.98 18.2411L24.77 1.3111C25.5 0.791102 26.44 0.731102 27.23 1.1511L27.55 1.3511L49.84 18.3711C50.42 18.8111 50.76 19.5111 50.76 20.2311V31.2511C50.76 31.8511 50.53 32.4211 50.12 32.8611L41.78 41.6311C40.81 42.6511 39.1 42.6411 38.1 41.3211C37.86 41.0011 37.74 40.6011 37.74 40.2011V26.4811C37.7 25.8411 37.36 25.2111 36.82 24.8011L27.28 17.5111C26.46 16.8911 25.34 16.8711 24.5 17.4711L13.82 25.0711C13.32 25.4311 13.02 26.0011 13.02 26.6211V38.6011C13.02 39.0711 13.19 39.5211 13.5 39.8711L28.43 56.5611C28.8 56.9811 29.01 57.5211 29.03 58.0811L29.16 65.5911V71.6211C29.16 72.0511 29.02 72.4911 28.74 72.8211C28.19 73.4611 27.49 73.7611 26.81 73.7611ZM3.47 43.7011L25.64 69.0611C25.82 69.2711 26.17 69.1411 26.17 68.8611V65.6211L26.05 59.1311C26.05 58.6511 25.86 58.1911 25.54 57.8311L11.38 42.0011C10.5 41.0211 10.02 39.7611 10.02 38.4411V25.0811C10.02 24.4711 10.32 23.8911 10.82 23.5311L22.76 15.0311C24.68 13.6611 27.22 13.7111 29.1 15.1311L38.64 22.4211C39.88 23.3711 40.64 24.8011 40.73 26.3511V26.6211V37.6211C40.73 37.8911 41.06 38.0211 41.25 37.8311L47.23 31.5411C47.57 31.1911 47.75 30.7211 47.75 30.2311V21.5011C47.75 20.9111 47.47 20.3511 47 19.9911L27.22 4.8811C26.56 4.3711 25.64 4.3611 24.96 4.8411L3.8 19.9211C3.3 20.2811 3 20.8511 3 21.4711V42.4511C3 42.9111 3.17 43.3511 3.47 43.7011Z" fill="white"/>
<path d="M3.47488 43.6903L25.6449 69.0503C25.8249 69.2603 26.1749 69.1303 26.1749 68.8503V65.6103L26.0549 59.1203C26.0549 58.6403 25.8649 58.1803 25.5449 57.8203L11.3849 41.9903C10.5049 41.0103 10.0249 39.7503 10.0249 38.4303V25.0703C10.0249 24.4603 10.3249 23.8803 10.8249 23.5203L22.7649 15.0203C24.6849 13.6503 27.2249 13.7003 29.1049 15.1203L38.6449 22.4103C39.8849 23.3603 40.6449 24.7903 40.7349 26.3403V26.6103V37.6103C40.7349 37.8803 41.0649 38.0103 41.2549 37.8203L47.2349 31.5303C47.5749 31.1803 47.7549 30.7103 47.7549 30.2203V21.4903C47.7549 20.9003 47.4749 20.3403 47.0049 19.9803L27.2249 4.88032C26.5649 4.37032 25.6449 4.36032 24.9649 4.84032L3.80488 19.9103C3.30488 20.2703 3.00488 20.8403 3.00488 21.4603V42.4403C3.00488 42.9003 3.17488 43.3403 3.47488 43.6903Z" fill="#B4B4B4" fill-opacity="0.4"/>
<path d="M43.2279 7.832C43.1956 7.64518 43.0337 7.50895 42.8441 7.50876H40.3041C39.9312 7.50882 39.7706 7.98244 40.0668 8.20895L42.9916 10.4443C43.2731 10.659 43.6723 10.4174 43.6127 10.0683L43.2279 7.832Z" fill="white"/>
<path d="M43.2279 7.832C43.1956 7.64518 43.0337 7.50895 42.8441 7.50876H40.3041C39.9312 7.50882 39.7706 7.98244 40.0668 8.20895L42.9916 10.4443C43.2731 10.659 43.6723 10.4174 43.6127 10.0683L43.2279 7.832Z" fill="white"/>
</svg>
