<svg width="33" height="21" viewBox="0 0 33 21" fill="none" xmlns="http://www.w3.org/2000/svg">
<path d="M28.3574 7.73438C29.5293 8.125 30.4668 8.82812 31.1699 9.84375C31.873 10.7812 32.2246 11.8359 32.2246 13.0078C32.3027 14.1797 31.9902 15.3516 31.2871 16.5234C30.6621 17.6172 29.6465 18.5547 28.2402 19.3359C25.9746 20.5078 23.9824 20.8203 22.2637 20.2734C20.5449 19.6484 19.334 18.7109 18.6309 17.4609C18.2402 16.8359 17.9277 15.9766 17.6934 14.8828C17.5371 13.7891 17.459 12.6562 17.459 11.4844C17.5371 10.2344 17.6934 9.02344 17.9277 7.85156C18.1621 6.67969 18.5137 5.70312 18.9824 4.92188C19.373 4.375 19.8418 3.78906 20.3887 3.16406C20.8574 2.61719 21.4043 2.07031 22.0293 1.52344C22.7324 0.976562 23.5137 0.46875 24.373 0L28.4746 0.234375C27.9277 0.859375 27.4199 1.44531 26.9512 1.99219C26.5605 2.46094 26.209 2.89062 25.8965 3.28125C25.584 3.67188 25.2715 4.02344 24.959 4.33594C24.4121 4.88281 23.9824 5.42969 23.6699 5.97656C23.3574 6.44531 23.084 6.95312 22.8496 7.5C22.6934 8.04688 22.6934 8.59375 22.8496 9.14062C23.8652 8.04688 25.0371 7.5 26.3652 7.5C26.9902 7.5 27.6543 7.57812 28.3574 7.73438ZM12.1855 8.32031C13.2793 8.94531 14.0605 9.80469 14.5293 10.8984C15.0762 11.9141 15.2715 13.0078 15.1152 14.1797C14.959 15.3516 14.4512 16.4453 13.5918 17.4609C12.8105 18.4766 11.6387 19.2578 10.0762 19.8047C7.6543 20.5859 5.66211 20.5469 4.09961 19.6875C2.53711 18.75 1.48242 17.6172 0.935547 16.2891C0.701172 15.5859 0.583984 14.6875 0.583984 13.5938C0.583984 12.5 0.701172 11.3672 0.935547 10.1953C1.16992 9.02344 1.48242 7.89062 1.87305 6.79688C2.26367 5.70312 2.77148 4.80469 3.39648 4.10156C3.86523 3.55469 4.41211 3.04688 5.03711 2.57812C5.58398 2.1875 6.20898 1.75781 6.91211 1.28906C7.69336 0.820312 8.55273 0.390625 9.49023 0L13.5918 1.05469C12.9668 1.60156 12.3809 2.07031 11.834 2.46094C11.3652 2.85156 10.9355 3.20312 10.5449 3.51562C10.1543 3.82812 9.76367 4.14062 9.37305 4.45312C8.82617 4.92188 8.35742 5.39062 7.9668 5.85938C7.57617 6.25 7.22461 6.71875 6.91211 7.26562C6.59961 7.73438 6.48242 8.24219 6.56055 8.78906C7.18555 8.32031 7.81055 8.04688 8.43555 7.96875C9.13867 7.8125 9.76367 7.77344 10.3105 7.85156C10.9355 7.92969 11.5605 8.08594 12.1855 8.32031Z" fill="#009B02" fill-opacity="0.3"/>
</svg>
