<svg width="41" height="41" viewBox="0 0 41 41" fill="none" xmlns="http://www.w3.org/2000/svg">
<path fill-rule="evenodd" clip-rule="evenodd" d="M6.74414 0.524658H34.2441C37.6959 0.524658 40.4941 3.32288 40.4941 6.77466V34.2747C40.4941 37.7264 37.6959 40.5247 34.2441 40.5247H6.74414C3.29236 40.5247 0.494141 37.7264 0.494141 34.2747V6.77466C0.494141 3.32288 3.29236 0.524658 6.74414 0.524658ZM21.359 15.5339C19.5677 16.2789 15.9877 17.821 10.619 20.16C9.74724 20.5067 9.29056 20.8459 9.24899 21.1775C9.17873 21.738 9.88057 21.9586 10.8363 22.2592C10.9663 22.3 11.101 22.3424 11.2391 22.3873C12.1794 22.693 13.4443 23.0505 14.1018 23.0647C14.6983 23.0776 15.364 22.8317 16.099 22.327C21.1151 18.941 23.7045 17.2295 23.8671 17.1926C23.9818 17.1666 24.1407 17.1339 24.2484 17.2296C24.356 17.3253 24.3455 17.5065 24.3341 17.5552C24.2645 17.8516 21.5095 20.4129 20.0838 21.7384C19.6393 22.1516 19.324 22.4447 19.2596 22.5116C19.1152 22.6616 18.9681 22.8034 18.8267 22.9398C17.9531 23.7819 17.298 24.4134 18.8629 25.4447C19.615 25.9402 20.2167 26.3501 20.8171 26.7589C21.4728 27.2054 22.1267 27.6507 22.9728 28.2054C23.1884 28.3467 23.3943 28.4935 23.5948 28.6364C24.3578 29.1804 25.0433 29.6691 25.8902 29.5911C26.3823 29.5459 26.8906 29.0831 27.1488 27.7031C27.7589 24.4415 28.9581 17.3748 29.2353 14.4627C29.2595 14.2076 29.229 13.8811 29.2045 13.7378C29.1799 13.5944 29.1287 13.3902 28.9424 13.239C28.7217 13.06 28.3811 13.0222 28.2287 13.0248C27.5361 13.0371 26.4733 13.4066 21.359 15.5339Z" fill="#406665"/>
</svg>
