<svg width="40" height="41" viewBox="0 0 40 41" fill="none" xmlns="http://www.w3.org/2000/svg">
<path fill-rule="evenodd" clip-rule="evenodd" d="M6.25 0.817383H33.75C37.2018 0.817383 40 3.6156 40 7.06738V34.5674C40 38.0192 37.2018 40.8174 33.75 40.8174H6.25C2.79822 40.8174 0 38.0192 0 34.5674V7.06738C0 3.6156 2.79822 0.817383 6.25 0.817383ZM20.8648 15.8266C19.0736 16.5716 15.4936 18.1137 10.1249 20.4528C9.2531 20.7994 8.79642 21.1386 8.75485 21.4702C8.68458 22.0307 9.38643 22.2514 10.3422 22.5519C10.4722 22.5928 10.6069 22.6351 10.745 22.68C11.6853 22.9857 12.9501 23.3433 13.6077 23.3575C14.2042 23.3703 14.8699 23.1244 15.6049 22.6198C20.621 19.2337 23.2104 17.5223 23.3729 17.4854C23.4876 17.4593 23.6465 17.4266 23.7542 17.5223C23.8619 17.618 23.8513 17.7993 23.8399 17.8479C23.7704 18.1443 21.0154 20.7056 19.5896 22.0311C19.1452 22.4443 18.8299 22.7374 18.7654 22.8044C18.6211 22.9543 18.4739 23.0962 18.3325 23.2325C17.459 24.0746 16.8039 24.7061 18.3688 25.7374C19.1208 26.233 19.7226 26.6428 20.323 27.0516C20.9786 27.4981 21.6326 27.9435 22.4787 28.4981C22.6942 28.6394 22.9001 28.7862 23.1006 28.9291C23.8637 29.4731 24.5492 29.9618 25.3961 29.8839C25.8882 29.8386 26.3965 29.3759 26.6546 27.9958C27.2647 24.7342 28.464 17.6675 28.7411 14.7555C28.7654 14.5003 28.7348 14.1738 28.7103 14.0305C28.6858 13.8871 28.6345 13.6829 28.4482 13.5317C28.2276 13.3527 27.8869 13.3149 27.7346 13.3175C27.0419 13.3298 25.9792 13.6994 20.8648 15.8266Z" fill="#BCB5A4"/>
</svg>
