<svg width="40" height="41" viewBox="0 0 40 41" fill="none" xmlns="http://www.w3.org/2000/svg">
<path d="M33.75 0.817383C37.2017 0.817383 39.9999 3.61572 40 7.06738V34.5674C40 38.0192 37.2018 40.8174 33.75 40.8174H6.25C2.79822 40.8174 0 38.0192 0 34.5674V7.06738C0.000131943 3.61572 2.7983 0.817383 6.25 0.817383H33.75ZM16.9141 12.9736C16.4767 12.9736 16.2267 13.4111 16.2266 13.6611C16.2266 14.4736 17.2265 14.5364 17.2891 16.4736V20.5986C17.2891 21.4735 17.164 21.6611 16.7891 21.6611C15.7891 21.6611 13.5391 18.1611 12.1016 14.0986C11.8516 13.2863 11.5389 13.0362 10.8516 13.0361H8.03906C7.22671 13.0361 7.16409 13.4112 7.16406 13.8486C7.16406 14.6611 8.03912 18.3487 11.5391 23.2861C13.9141 26.5986 17.1641 28.4736 20.1641 28.4736C21.9764 28.4736 22.1641 28.0986 22.1641 27.4111V24.8486C22.1641 24.0364 22.3516 23.9736 22.8516 23.9736C23.2266 23.9737 23.9768 24.1614 25.6641 25.8486C27.6016 27.7861 27.9766 28.6611 29.0391 28.6611H31.8516C32.664 28.6611 33.039 28.2236 32.7266 27.1611C32.4765 26.3486 31.6015 25.2235 30.3516 23.7861C29.7266 23.0362 28.6641 22.2236 28.4141 21.7861C27.9767 21.2237 28.1641 20.9736 28.4141 20.5361C28.4407 20.4988 31.853 15.717 32.2266 14.0361C32.4139 13.4113 32.2263 12.9737 31.3516 12.9736H28.5391C27.7892 12.9736 27.4766 13.3487 27.2891 13.7861C27.2891 13.7861 25.8515 17.2236 23.8516 19.5361C23.2266 20.2236 22.914 20.4111 22.5391 20.4111C22.3516 20.4111 22.1016 20.2236 22.1016 19.5986V14.0361C22.1015 13.2239 21.9139 12.9737 21.2891 12.9736H16.9141Z" fill="#BCB5A4"/>
</svg>
