<svg width="41" height="41" viewBox="0 0 41 41" fill="none" xmlns="http://www.w3.org/2000/svg">
<path d="M34.2441 0.524658C37.6958 0.524658 40.494 3.32299 40.4941 6.77466V34.2747C40.4941 37.7264 37.6959 40.5247 34.2441 40.5247H6.74414C3.29236 40.5247 0.494141 37.7264 0.494141 34.2747V6.77466C0.494273 3.32299 3.29244 0.524658 6.74414 0.524658H34.2441ZM17.4082 12.6809C16.9708 12.6809 16.7209 13.1184 16.7207 13.3684C16.7207 14.1809 17.7206 14.2436 17.7832 16.1809V20.3059C17.7832 21.1808 17.6581 21.3684 17.2832 21.3684C16.2832 21.3684 14.0332 17.8684 12.5957 13.8059C12.3457 12.9936 12.0331 12.7434 11.3457 12.7434H8.5332C7.72085 12.7434 7.65823 13.1185 7.6582 13.5559C7.6582 14.3684 8.53327 18.056 12.0332 22.9934C14.4082 26.3059 17.6582 28.1809 20.6582 28.1809C22.4706 28.1809 22.6582 27.8059 22.6582 27.1184V24.5559C22.6582 23.7436 22.8458 23.6809 23.3457 23.6809C23.7207 23.6809 24.4709 23.8686 26.1582 25.5559C28.0957 27.4934 28.4707 28.3684 29.5332 28.3684H32.3457C33.1581 28.3684 33.5332 27.9309 33.2207 26.8684C32.9706 26.0559 32.0956 24.9308 30.8457 23.4934C30.2207 22.7434 29.1582 21.9309 28.9082 21.4934C28.4708 20.931 28.6582 20.6809 28.9082 20.2434C28.9349 20.2061 32.3472 15.4243 32.7207 13.7434C32.9081 13.1186 32.7205 12.6809 31.8457 12.6809H29.0332C28.2833 12.6809 27.9707 13.056 27.7832 13.4934C27.7832 13.4934 26.3456 16.9309 24.3457 19.2434C23.7208 19.9308 23.4081 20.1184 23.0332 20.1184C22.8457 20.1184 22.5957 19.9309 22.5957 19.3059V13.7434C22.5957 12.9312 22.408 12.6809 21.7832 12.6809H17.4082Z" fill="#406665"/>
</svg>
